<?xml version="1.0" encoding="UTF-8"?>
<!-- Generated by Pixelmator Pro 3.6.18 -->
<svg width="905" height="191" viewBox="0 0 905 191" xmlns="http://www.w3.org/2000/svg">
    <g id="Group">
        <g id="g1">
            <path id="Path-copy-3" fill="#ffffff" stroke="none" d="M 109.412323 79.066818 L 39.029007 8.594727 C 30.41457 -0.032684 16.446022 -0.032684 7.839309 8.594727 C -0.775138 17.222137 -0.775138 31.20311 7.839309 39.83139 L 63.313171 95.414551 L 7.839309 150.997726 C -0.775138 159.625122 -0.775138 173.60611 7.839309 182.23439 C 16.453749 190.862656 30.41371 190.861786 39.029007 182.23439 L 109.41877 111.762291 C 113.558434 107.616379 115.871223 101.985008 115.8545 96.118835 L 115.8545 95.413864 C 116.055618 89.304047 113.725998 83.387352 109.410385 79.065277 Z"/>
            <path id="Path-copy-2" fill="#ffffff" stroke="none" d="M 225.441803 96.101608 L 225.441803 95.396751 C 225.651276 89.287918 223.31366 83.372169 219.007111 79.050789 L 148.611526 8.590042 C 139.998474 -0.035965 126.040764 -0.035965 117.426849 8.590042 C 108.812935 17.216064 108.813789 31.194794 117.426849 39.821671 L 172.917526 95.395897 L 117.426849 150.970123 C 108.813789 159.59613 108.813789 173.57486 117.426849 182.201752 C 126.039902 190.828644 139.99762 190.827774 148.611526 182.201752 L 218.989944 111.74099 C 223.128967 107.595757 225.449738 101.965302 225.441376 96.100052 Z"/>
        </g>
        <text id="involv" xml:space="preserve" x="271" y="184" font-family="Arial Rounded MT Bold" font-size="252.942492" fill="#ffffff" letter-spacing="-15.17655">involv</text>
    </g>
</svg>
